<?xml version="1.0" standalone="no"?>
<!DOCTYPE svg PUBLIC "-//W3C//DTD SVG 20010904//EN"
 "http://www.w3.org/TR/2001/REC-SVG-20010904/DTD/svg10.dtd">
<svg version="1.0" xmlns="http://www.w3.org/2000/svg"
 width="512.000000pt" height="512.000000pt" viewBox="0 0 512.000000 512.000000"
 preserveAspectRatio="xMidYMid meet">
<metadata>
Created by potrace 1.14, written by Peter Selinger 2001-2017
</metadata>
<g transform="translate(0.000000,512.000000) scale(0.100000,-0.100000)"
fill="#000000" stroke="none">
<path d="M682 4353 l3 -418 1186 0 1187 0 -32 -40 c-17 -21 -102 -125 -189
-230 -87 -104 -166 -199 -175 -210 -9 -11 -48 -58 -87 -105 -38 -47 -72 -87
-75 -90 -3 -3 -24 -27 -46 -55 -22 -27 -186 -225 -364 -440 -178 -214 -413
-498 -523 -630 -109 -132 -206 -249 -215 -260 -9 -11 -95 -115 -191 -230 -95
-116 -183 -221 -195 -235 -11 -14 -50 -61 -86 -105 -36 -44 -69 -85 -75 -91
-5 -6 -28 -32 -50 -59 -22 -26 -59 -70 -83 -98 l-42 -51 0 -333 0 -333 1938 2
1937 3 0 400 c1 220 -1 407 -3 415 -3 13 -146 15 -1250 15 -686 -1 -1250 1
-1255 3 -4 2 23 40 60 85 38 45 75 90 83 101 8 10 20 23 25 30 11 11 143 170
206 247 102 124 255 309 289 349 69 82 155 186 185 225 17 21 35 43 40 49 9 9
383 461 490 591 18 22 93 112 167 201 73 88 149 180 168 204 19 24 52 64 74
89 21 25 45 55 55 66 74 91 115 141 228 276 48 58 104 125 123 149 19 24 77
93 127 154 l93 111 0 333 0 332 -1865 0 -1865 0 2 -417z"/>
</g>
</svg>
