<svg id="visual" viewBox="0 0 540 960" width="540" height="960" xmlns="http://www.w3.org/2000/svg" xmlns:xlink="http://www.w3.org/1999/xlink" version="1.1"><rect x="0" y="0" width="540" height="960" fill="#222e43"></rect><defs><linearGradient id="grad1_0" x1="0%" y1="100%" x2="100%" y2="0%"><stop offset="30%" stop-color="#222e43" stop-opacity="1"></stop><stop offset="70%" stop-color="#222e43" stop-opacity="1"></stop></linearGradient></defs><defs><linearGradient id="grad2_0" x1="0%" y1="100%" x2="100%" y2="0%"><stop offset="30%" stop-color="#222e43" stop-opacity="1"></stop><stop offset="70%" stop-color="#222e43" stop-opacity="1"></stop></linearGradient></defs><g transform="translate(540, 960)"><path d="M-459 0C-453.1 -60.5 -447.2 -121.1 -424.1 -175.7C-400.9 -230.2 -360.6 -278.8 -314.7 -314.7C-268.7 -350.5 -217.2 -373.5 -163.8 -395.4C-110.4 -417.3 -55.2 -438.2 0 -459L0 0Z" fill="#005dff"></path></g><g transform="translate(0, 0)"><path d="M459 0C434.2 51.6 409.4 103.2 391.7 162.3C374 221.3 363.4 287.7 324.6 324.6C285.7 361.4 218.8 368.7 160 386.2C101.2 403.7 50.6 431.3 0 459L0 0Z" fill="#005dff"></path></g></svg>